<svg width="1200" height="320" viewBox="0 0 1200 320" fill="none" xmlns="http://www.w3.org/2000/svg">

  <!-- Icon -->
  <g transform="translate(20,20)">
    <!-- Main C -->
    <path
      d="M140 20
         C70 20 20 70 20 140
         C20 210 70 260 140 260
         L140 200
         C105 200 80 175 80 140
         C80 105 105 80 140 80
         Z"
      fill="#2F2A29"/>

    <!-- Orange segment -->
    <path
      d="M140 140
         L140 260
         C206 260 260 206 260 140
         L200 140
         C200 173 173 200 140 200
         Z"
      fill="#E84613"/>

    <!-- Digital pixels -->
    <rect x="190" y="20" width="18" height="18" rx="2" fill="#8B9949"/>
    <rect x="215" y="20" width="18" height="18" rx="2" fill="#8B9949"/>
    <rect x="190" y="45" width="18" height="18" rx="2" fill="#8B9949"/>
    <rect x="215" y="45" width="18" height="18" rx="2" fill="#8B9949"/>
    <rect x="240" y="0" width="14" height="14" rx="2" fill="#E84613"/>
  </g>

  <!-- Wordmark -->
  <text
    x="340"
    y="145"
    font-family="Montserrat, Arial, sans-serif"
    font-size="96"
    font-weight="700"
    fill="#2F2A29">
    CROMMI
  </text>

  <text
    x="785"
    y="145"
    font-family="Montserrat, Arial, sans-serif"
    font-size="96"
    font-weight="700"
    fill="#E84613">
    X
  </text>

  <text
    x="345"
    y="215"
    font-family="Montserrat, Arial, sans-serif"
    font-size="42"
    font-weight="600"
    fill="#8B9949">
    MALI S.A.
  </text>

  <!-- Divider -->
  <line
    x1="345"
    y1="235"
    x2="980"
    y2="235"
    stroke="#D6ECBA"
    stroke-width="3"/>

  <!-- Tagline -->
  <text
    x="345"
    y="285"
    font-family="Montserrat, Arial, sans-serif"
    font-size="28"
    font-weight="500"
    fill="#2F2A29"
    letter-spacing="2">
    INNOVATION NUMÉRIQUE POUR L'AFRIQUE
  </text>

</svg>